<svg width="23" height="24" viewBox="0 0 23 24" fill="none" xmlns="http://www.w3.org/2000/svg">
<path d="M2 9.25L1.29289 9.95711L0.585785 9.25L1.29289 8.54289L2 9.25ZM8.25 24C7.69772 24 7.25 23.5523 7.25 23C7.25 22.4477 7.69772 22 8.25 22L8.25 24ZM7.54289 16.2071L1.29289 9.95711L2.70711 8.54289L8.95711 14.7929L7.54289 16.2071ZM1.29289 8.54289L7.54289 2.29289L8.95711 3.70711L2.70711 9.95711L1.29289 8.54289ZM2 8.25L15.125 8.25L15.125 10.25L2 10.25L2 8.25ZM15.125 24L8.25 24L8.25 22L15.125 22L15.125 24ZM23 16.125C23 20.4742 19.4742 24 15.125 24L15.125 22C18.3697 22 21 19.3697 21 16.125L23 16.125ZM15.125 8.25C19.4742 8.25 23 11.7758 23 16.125L21 16.125C21 12.8803 18.3697 10.25 15.125 10.25L15.125 8.25Z" fill="#888686"/>
<path d="M2 7.25L1.29289 7.95711L0.585785 7.25L1.29289 6.54289L2 7.25ZM8.25 22C7.69772 22 7.25 21.5523 7.25 21C7.25 20.4477 7.69772 20 8.25 20L8.25 22ZM7.54289 14.2071L1.29289 7.95711L2.70711 6.54289L8.95711 12.7929L7.54289 14.2071ZM1.29289 6.54289L7.54289 0.292895L8.95711 1.70711L2.70711 7.95711L1.29289 6.54289ZM2 6.25L15.125 6.25L15.125 8.25L2 8.25L2 6.25ZM15.125 22L8.25 22L8.25 20L15.125 20L15.125 22ZM23 14.125C23 18.4742 19.4742 22 15.125 22L15.125 20C18.3697 20 21 17.3697 21 14.125L23 14.125ZM15.125 6.25C19.4742 6.25 23 9.77576 23 14.125L21 14.125C21 10.8803 18.3697 8.25 15.125 8.25L15.125 6.25Z" fill="#333333"/>
</svg>
