<svg width="48" height="48" viewBox="0 0 48 48" fill="none" xmlns="http://www.w3.org/2000/svg">
<path d="M7 42C6.2 42 5.5 41.7 4.9 41.1C4.3 40.5 4 39.8 4 39V15C4 14.2 4.3 13.5 4.9 12.9C5.5 12.3 6.2 12 7 12H16V7C16 6.2 16.3 5.5 16.9 4.9C17.5 4.3 18.2 4 19 4H29C29.8 4 30.5 4.3 31.1 4.9C31.7 5.5 32 6.2 32 7V12H41C41.8 12 42.5 12.3 43.1 12.9C43.7 13.5 44 14.2 44 15V39C44 39.8 43.7 40.5 43.1 41.1C42.5 41.7 41.8 42 41 42H7ZM7 39H41V15H7V39ZM19 12H29V7H19V12ZM7 39V15V39Z" fill="white"/>
<path d="M23.2688 32.4167H24.8938V27.9209H29.4167V26.2959H24.8938V21.5834H23.2688V26.2959H18.5833V27.9209H23.2688V32.4167ZM24 37.8334C22.5194 37.8334 21.1201 37.549 19.8021 36.9802C18.484 36.4115 17.333 35.6351 16.349 34.6511C15.3649 33.667 14.5885 32.516 14.0198 31.1979C13.451 29.8799 13.1667 28.4715 13.1667 26.9729C13.1667 25.4924 13.451 24.0931 14.0198 22.775C14.5885 21.457 15.3649 20.3104 16.349 19.3354C17.333 18.3604 18.484 17.5886 19.8021 17.0198C21.1201 16.4511 22.5285 16.1667 24.0271 16.1667C25.5076 16.1667 26.9069 16.4511 28.225 17.0198C29.5431 17.5886 30.6896 18.3604 31.6646 19.3354C32.6396 20.3104 33.4115 21.457 33.9802 22.775C34.549 24.0931 34.8333 25.5014 34.8333 27C34.8333 28.4806 34.549 29.8799 33.9802 31.1979C33.4115 32.516 32.6396 33.667 31.6646 34.6511C30.6896 35.6351 29.5431 36.4115 28.225 36.9802C26.9069 37.549 25.4986 37.8334 24 37.8334ZM24.0271 36.2084C26.5729 36.2084 28.7396 35.3101 30.5271 33.5136C32.3146 31.717 33.2083 29.5368 33.2083 26.9729C33.2083 24.4271 32.3146 22.2604 30.5271 20.4729C28.7396 18.6854 26.5639 17.7917 24 17.7917C21.4542 17.7917 19.283 18.6854 17.4865 20.4729C15.6899 22.2604 14.7917 24.4361 14.7917 27C14.7917 29.5459 15.6899 31.717 17.4865 33.5136C19.283 35.3101 21.4632 36.2084 24.0271 36.2084Z" fill="white"/>
</svg>
