<svg width="20" height="11" viewBox="0 0 20 11" fill="none" xmlns="http://www.w3.org/2000/svg">
<path fill-rule="evenodd" clip-rule="evenodd" d="M0.225964 0.230097C0.297411 0.157159 0.382286 0.0992911 0.475729 0.0598072C0.569172 0.0203233 0.669347 0 0.770516 0C0.871684 0 0.971859 0.0203233 1.0653 0.0598072C1.15875 0.0992911 1.24362 0.157159 1.31507 0.230097L10.0002 9.07567L18.6853 0.230097C18.7568 0.157277 18.8417 0.0995135 18.9352 0.0601038C19.0286 0.020694 19.1288 0.000410063 19.2299 0.000410063C19.331 0.000410063 19.4312 0.020694 19.5246 0.0601038C19.618 0.0995135 19.7029 0.157277 19.7744 0.230097C19.846 0.302917 19.9027 0.389366 19.9414 0.484509C19.9801 0.579653 20 0.681627 20 0.78461C20 0.887592 19.9801 0.989567 19.9414 1.08471C19.9027 1.17985 19.846 1.2663 19.7744 1.33912L10.5448 10.7376C10.4733 10.8106 10.3884 10.8684 10.295 10.9079C10.2015 10.9474 10.1014 10.9677 10.0002 10.9677C9.89903 10.9677 9.79886 10.9474 9.70542 10.9079C9.61197 10.8684 9.5271 10.8106 9.45565 10.7376L0.225964 1.33912C0.154337 1.26637 0.0975082 1.17994 0.0587336 1.08479C0.019959 0.989636 0 0.887629 0 0.78461C0 0.681591 0.019959 0.579583 0.0587336 0.484431C0.0975082 0.389279 0.154337 0.30285 0.225964 0.230097V0.230097Z" fill="#1D277F"/>
</svg>
